<svg width="82" height="80" viewBox="0 0 82 80" fill="none" xmlns="http://www.w3.org/2000/svg">
<path d="M10.8238 58.1232C7.29542 59.7802 1.13281 60.5145 1.13281 60.5145C1.13281 60.5145 2.04095 64.0341 3.14653 66.0522C5.48634 70.3234 8.05125 72.4917 12.3789 74.7253C15.6609 76.4193 19.8688 78.029 25.0457 79.0155C29.5906 79.8816 32.308 80.3776 36.8763 79.6448C40.1913 79.1131 42.0726 78.5396 45.057 77.0018C48.9673 74.9869 53.7412 69.828 53.7412 69.828C53.7412 69.828 51.8772 73.7696 50.0913 75.8691C48.6711 77.5388 45.938 79.6448 45.938 79.6448C45.938 79.6448 49.3485 80.0346 51.4757 79.6448C55.4395 78.9186 57.4723 77.2413 60.4116 74.4847C63.3051 71.771 64.8315 69.8191 66.0752 66.0522C67.5237 61.665 67.4135 58.6437 66.0752 54.2216C64.8664 50.2274 63.3053 48.1669 60.4116 45.1599C57.3112 41.9381 54.9785 40.5756 50.8465 38.8671C46.0525 36.8848 42.8716 35.7322 37.7573 36.6016C32.7261 37.4569 30.2201 39.6218 26.3043 42.8945C22.4169 46.1434 21.9102 49.5973 18.1236 52.9631C15.5142 55.2823 13.9838 56.6393 10.8238 58.1232Z" fill="white"/>
<path d="M56.3842 38.8672C52.4312 36.5714 45.1829 34.9656 45.1829 34.9656C45.1829 34.9656 47.343 31.8937 49.462 31.3157C52.2309 30.5606 53.7626 30.6563 56.3842 31.3157C58.793 31.9217 60.1773 32.5761 62.0477 34.2105C63.743 35.6918 64.6184 36.7735 65.4459 38.8672C66.6563 41.9297 65.4459 47.2996 65.4459 47.2996C65.4459 47.2996 60.6819 41.3632 56.3842 38.8672Z" fill="white"/>
<path d="M74.3818 1.23583C67.2079 13.5698 56.51 31.8191 56.51 31.8191L61.4184 35.2173C61.4184 35.2173 73.6266 16.087 80.8005 5.38912C81.874 3.7882 80.8038 1.74603 79.1643 0.732396C77.5669 -0.255202 75.326 -0.387579 74.3818 1.23583Z" fill="white"/>
<path d="M6.58569 38.4897L7.33569 40.9663C7.8235 42.5771 9.08397 43.8375 10.6947 44.3253L13.1713 45.0753L10.6947 45.8253C9.08397 46.3131 7.8235 47.5736 7.33569 49.1844L6.58569 51.6609L5.8357 49.1844C5.34789 47.5736 4.08742 46.3131 2.47664 45.8253L9.59893e-05 45.0753L2.47664 44.3253C4.08742 43.8375 5.34789 42.5771 5.8357 40.9663L6.58569 38.4897Z" fill="white"/>
<path d="M20.4504 31.9453L20.7956 33.0852C21.2834 34.6959 22.5439 35.9564 24.1547 36.4442L25.2945 36.7894L24.1547 37.1346C22.5439 37.6224 21.2834 38.8829 20.7956 40.4937L20.4504 41.6335L20.1052 40.4937C19.6174 38.8829 18.357 37.6224 16.7462 37.1346L15.6063 36.7894L16.7462 36.4442C18.357 35.9564 19.6174 34.6959 20.1052 33.0852L20.4504 31.9453Z" fill="white"/>
<path d="M74.5691 47.8032L74.9143 48.9431C75.4021 50.5539 76.6626 51.8143 78.2733 52.3021L79.4132 52.6473L78.2733 52.9925C76.6626 53.4803 75.4021 54.7408 74.9143 56.3516L74.5691 57.4914L74.2239 56.3516C73.7361 54.7408 72.4756 53.4803 70.8648 52.9925L69.725 52.6473L70.8648 52.3021C72.4756 51.8143 73.7361 50.5539 74.2239 48.9431L74.5691 47.8032Z" fill="white"/>
</svg>
