<svg width="512" height="512" viewBox="0 0 512 512" fill="none" xmlns="http://www.w3.org/2000/svg">
<g clip-path="url(#clip0_821_28409)">
<rect width="512" height="512" fill="#1E56CD"/>
<circle opacity="0.05" cx="35" cy="29" r="363" fill="white"/>
<circle opacity="0.05" cx="256" cy="512" r="363" fill="white"/>
<circle opacity="0.05" cx="512" cy="-36" r="363" fill="white"/>
<g filter="url(#filter0_d_821_28409)">
<path d="M159.474 366C124.342 410.5 81.9542 373.865 81.9542 373.865C81.9542 373.865 89.3489 395.563 97.2669 407.725C114.024 433.465 131.191 445.872 159.474 457.848C180.923 466.93 208.153 475.039 241.18 478.766C270.175 482.037 287.5 483.856 315.877 477.062C336.468 472.132 348.024 467.626 366.056 456.528C389.681 441.987 417.233 407.261 417.233 407.261C419.576 438.057 372.861 472.727 372.861 472.727C372.861 472.727 394.494 473.546 407.684 470.077C432.262 463.614 444.243 452.094 461.407 433.352C478.304 414.903 486.969 401.899 492.988 377.616C499.997 349.334 497.859 330.388 487.327 303.22C477.814 278.681 467.012 266.471 447.376 248.947C426.338 230.17 411.017 222.718 384.216 213.951C353.121 203.78 332.567 198.054 300.822 205.968C269.593 213.754 255.573 229.311 231.812 251.02C217.604 264 180 340 159.474 366Z" fill="white"/>
</g>
<g filter="url(#filter1_d_821_28409)">
<path d="M414.04 214.301C388.083 201.756 341.735 195.126 341.735 195.126C341.735 195.126 353.848 174.775 366.897 170.127C383.948 164.053 393.625 163.922 410.426 166.815C425.864 169.473 434.882 172.925 447.426 182.308C458.796 190.812 464.818 197.196 471.023 209.965C480.1 228.645 475.058 262.992 475.058 262.992C475.058 262.992 442.26 227.941 414.04 214.301Z" fill="white"/>
</g>
<g filter="url(#filter2_d_821_28409)">
<path d="M497.608 16.8781C469.627 74.6102 427.851 160.059 427.851 160.059L451.034 173.614C451.034 173.614 499.285 83.7012 527.825 33.3025C532.095 25.7605 526.597 16.9725 518.895 12.9889C511.391 9.10765 501.291 9.27936 497.608 16.8781Z" fill="white"/>
</g>
<path d="M101.051 42L112.931 81.2301C115.235 88.8374 121.188 94.7902 128.795 97.094L168.026 108.974L128.795 120.855C121.188 123.159 115.235 129.112 112.931 136.719L101.051 175.949L89.1706 136.719C86.8668 129.112 80.9139 123.159 73.3066 120.855L34.0765 108.974L73.3066 97.094C80.9139 94.7902 86.8668 88.8374 89.1706 81.2301L101.051 42Z" fill="white" fill-opacity="0.8"/>
<path d="M216.216 2L221.877 20.6915C224.18 28.2988 230.133 34.2517 237.741 36.5555L256.432 42.2161L237.741 47.8766C230.133 50.1804 224.18 56.1333 221.877 63.7406L216.216 82.4321L210.556 63.7406C208.252 56.1333 202.299 50.1804 194.692 47.8766L176 42.2161L194.692 36.5555C202.299 34.2517 208.252 28.2988 210.556 20.6915L216.216 2Z" fill="white" fill-opacity="0.8"/>
<g clip-path="url(#clip1_821_28409)">
<path d="M43.0966 438.311C37.4393 434.914 30.4154 433.847 23.6149 435.949C16.8144 438.051 11.6172 442.896 8.86367 448.893M27.6718 449.073C11.363 454.115 -5.94465 444.981 -10.986 428.672C-16.0273 412.363 -6.89318 395.055 9.41562 390.014C25.7244 384.973 43.0321 394.107 48.0734 410.416C53.1147 426.724 43.9806 444.032 27.6718 449.073ZM20.5722 426.106C15.1359 427.786 9.36671 424.742 7.68627 419.305C6.00583 413.869 9.05053 408.1 14.4868 406.419C19.9231 404.739 25.6923 407.784 27.3727 413.22C29.0532 418.656 26.0085 424.425 20.5722 426.106Z" stroke="white" stroke-opacity="0.6" stroke-width="4.66667" stroke-linecap="round" stroke-linejoin="round"/>
</g>
<g clip-path="url(#clip2_821_28409)">
<path d="M74.6449 311.308C74.7299 311.099 74.8179 310.883 74.9085 310.66L90.2209 273.058C91.6995 269.427 92.4394 267.611 93.7107 266.512C94.829 265.545 96.2237 264.957 97.6967 264.833C99.3712 264.691 101.188 265.43 104.819 266.909L142.421 282.221C146.051 283.7 147.866 284.439 148.965 285.71C149.932 286.829 150.521 288.224 150.646 289.697C150.787 291.37 150.048 293.184 148.573 296.808L133.252 334.43C132.612 336.002 132.111 337.233 131.644 338.213M74.6449 311.308C73.3427 314.513 72.7004 316.206 72.8336 317.778C72.9584 319.251 73.5445 320.649 74.5113 321.768C75.6092 323.038 77.4238 323.777 81.0476 325.252L118.671 340.573C122.295 342.049 124.107 342.787 125.78 342.645C127.253 342.52 128.65 341.93 129.769 340.964C130.488 340.342 131.036 339.492 131.644 338.213M74.6449 311.308L97.443 299.571L97.4496 299.567C99.4717 298.526 100.484 298.005 101.416 298.048C102.235 298.086 103.013 298.41 103.618 298.963C104.307 299.593 104.652 300.679 105.343 302.85L109.771 316.767C110.41 318.777 110.732 319.788 111.372 320.402C111.937 320.944 112.668 321.276 113.446 321.354C114.333 321.443 115.313 321.03 117.273 320.205L119.54 319.249C121.536 318.409 122.534 317.989 123.431 318.084C124.218 318.168 124.954 318.518 125.518 319.075C126.161 319.708 126.469 320.743 127.084 322.82L131.644 338.213M131.644 338.213L131.673 338.308M125.423 297.974C123.633 297.245 122.773 295.203 123.502 293.413C124.231 291.622 126.273 290.762 128.064 291.491C129.854 292.22 130.714 294.263 129.985 296.053C129.256 297.843 127.214 298.703 125.423 297.974Z" stroke="white" stroke-opacity="0.6" stroke-width="7" stroke-linecap="round" stroke-linejoin="round"/>
</g>
<g clip-path="url(#clip3_821_28409)">
<circle cx="24.8857" cy="226.65" r="28.125" transform="rotate(-13.6323 24.8857 226.65)" stroke="white" stroke-opacity="0.5" stroke-width="6.25" stroke-linecap="round" stroke-linejoin="round"/>
<path d="M30.9596 225.177L23.1244 232.647L20.573 222.126L30.9596 225.177Z" stroke="white" stroke-opacity="0.5" stroke-width="6.25" stroke-linejoin="round"/>
</g>
<g clip-path="url(#clip4_821_28409)">
<path d="M73.3077 471.275L70.2345 472.164C65.9305 473.409 63.7769 474.032 62.3752 475.345C61.1423 476.5 60.3074 478.015 59.9888 479.674C59.6267 481.56 60.2496 483.714 61.4946 488.018L62.3835 491.091M73.3077 471.275L104.048 462.384M73.3077 471.275L71.0848 463.59M104.048 462.384L107.122 461.494C111.426 460.249 113.575 459.628 115.461 459.99C117.121 460.308 118.639 461.142 119.794 462.375C121.106 463.775 121.728 465.926 122.971 470.222L123.863 473.308M104.048 462.384L101.825 454.699M62.3835 491.091L72.1644 524.906C73.4093 529.21 74.0315 531.36 75.3446 532.762C76.4996 533.995 78.0148 534.832 79.6739 535.151C81.5583 535.512 83.7093 534.89 88.0049 533.648L124.916 522.971C129.212 521.728 131.36 521.107 132.76 519.795C133.993 518.64 134.831 517.122 135.15 515.463C135.512 513.579 134.89 511.431 133.648 507.136L123.863 473.308M62.3835 491.091L123.863 473.308M117.385 508.494L117.393 508.491L117.395 508.499L117.387 508.501L117.385 508.494ZM102.015 512.939L102.023 512.937L102.025 512.945L102.017 512.947L102.015 512.939ZM86.645 517.385L86.6526 517.383L86.6547 517.391L86.6471 517.393L86.645 517.385ZM112.947 493.121L112.949 493.129L112.941 493.131L112.939 493.124L112.947 493.121ZM97.5692 497.569L97.5768 497.567L97.5789 497.575L97.5713 497.577L97.5692 497.569ZM82.1992 502.015L82.2069 502.013L82.2089 502.021L82.2014 502.023L82.1992 502.015Z" stroke="white" stroke-opacity="0.3" stroke-width="8" stroke-linecap="round" stroke-linejoin="round"/>
</g>
</g>
<defs>
<filter id="filter0_d_821_28409" x="81.9542" y="202.258" width="415.105" height="293.431" filterUnits="userSpaceOnUse" color-interpolation-filters="sRGB">
<feFlood flood-opacity="0" result="BackgroundImageFix"/>
<feColorMatrix in="SourceAlpha" type="matrix" values="0 0 0 0 0 0 0 0 0 0 0 0 0 0 0 0 0 0 127 0" result="hardAlpha"/>
<feOffset dy="14"/>
<feComposite in2="hardAlpha" operator="out"/>
<feColorMatrix type="matrix" values="0 0 0 0 0 0 0 0 0 0 0 0 0 0 0 0 0 0 0.07 0"/>
<feBlend mode="normal" in2="BackgroundImageFix" result="effect1_dropShadow_821_28409"/>
<feBlend mode="normal" in="SourceGraphic" in2="effect1_dropShadow_821_28409" result="shape"/>
</filter>
<filter id="filter1_d_821_28409" x="341.734" y="164.982" width="134.72" height="112.01" filterUnits="userSpaceOnUse" color-interpolation-filters="sRGB">
<feFlood flood-opacity="0" result="BackgroundImageFix"/>
<feColorMatrix in="SourceAlpha" type="matrix" values="0 0 0 0 0 0 0 0 0 0 0 0 0 0 0 0 0 0 127 0" result="hardAlpha"/>
<feOffset dy="14"/>
<feComposite in2="hardAlpha" operator="out"/>
<feColorMatrix type="matrix" values="0 0 0 0 0 0 0 0 0 0 0 0 0 0 0 0 0 0 0.07 0"/>
<feBlend mode="normal" in2="BackgroundImageFix" result="effect1_dropShadow_821_28409"/>
<feBlend mode="normal" in="SourceGraphic" in2="effect1_dropShadow_821_28409" result="shape"/>
</filter>
<filter id="filter2_d_821_28409" x="427.851" y="10.4914" width="101.465" height="177.123" filterUnits="userSpaceOnUse" color-interpolation-filters="sRGB">
<feFlood flood-opacity="0" result="BackgroundImageFix"/>
<feColorMatrix in="SourceAlpha" type="matrix" values="0 0 0 0 0 0 0 0 0 0 0 0 0 0 0 0 0 0 127 0" result="hardAlpha"/>
<feOffset dy="14"/>
<feComposite in2="hardAlpha" operator="out"/>
<feColorMatrix type="matrix" values="0 0 0 0 0 0 0 0 0 0 0 0 0 0 0 0 0 0 0.07 0"/>
<feBlend mode="normal" in2="BackgroundImageFix" result="effect1_dropShadow_821_28409"/>
<feBlend mode="normal" in="SourceGraphic" in2="effect1_dropShadow_821_28409" result="shape"/>
</filter>
<clipPath id="clip0_821_28409">
<rect width="512" height="512" fill="white"/>
</clipPath>
<clipPath id="clip1_821_28409">
<rect width="82.4222" height="82.4222" fill="white" transform="translate(-33 392.342) rotate(-17.1772)"/>
</clipPath>
<clipPath id="clip2_821_28409">
<rect width="84" height="84" fill="white" transform="translate(88.6808 249) rotate(22.1574)"/>
</clipPath>
<clipPath id="clip3_821_28409">
<rect width="75" height="75" fill="white" transform="translate(-21 198.677) rotate(-13.6323)"/>
</clipPath>
<clipPath id="clip4_821_28409">
<rect width="96" height="96" fill="white" transform="translate(38.1221 464.797) rotate(-16.1325)"/>
</clipPath>
</defs>
</svg>
