<svg width="132" height="120" viewBox="0 0 132 120" fill="none" xmlns="http://www.w3.org/2000/svg">
<path d="M36.2076 58.1232C32.6792 59.7802 26.5166 60.5145 26.5166 60.5145C26.5166 60.5145 27.4247 64.0341 28.5303 66.0522C30.8701 70.3234 33.435 72.4917 37.7627 74.7253C41.0447 76.4193 45.2525 78.029 50.4295 79.0155C54.9744 79.8816 57.6918 80.3776 62.2601 79.6448C65.5751 79.1131 67.4563 78.5396 70.4408 77.0018C74.3511 74.9869 79.125 69.828 79.125 69.828C79.125 69.828 77.261 73.7696 75.4751 75.8691C74.0548 77.5388 71.3218 79.6448 71.3218 79.6448C71.3218 79.6448 74.7323 80.0346 76.8595 79.6448C80.8233 78.9186 82.8561 77.2413 85.7954 74.4847C88.6889 71.771 90.2153 69.8191 91.459 66.0522C92.9075 61.665 92.7973 58.6437 91.459 54.2216C90.2502 50.2274 88.6891 48.1669 85.7954 45.1599C82.695 41.9381 80.3623 40.5756 76.2302 38.8671C71.4363 36.8848 68.2553 35.7322 63.1411 36.6016C58.1099 37.4569 55.6039 39.6218 51.6881 42.8945C47.8006 46.1434 47.294 49.5973 43.5073 52.9631C40.898 55.2823 39.3676 56.6393 36.2076 58.1232Z" fill="white"/>
<path d="M81.768 38.8672C77.815 36.5714 70.5667 34.9656 70.5667 34.9656C70.5667 34.9656 72.7268 31.8937 74.8458 31.3157C77.6147 30.5606 79.1463 30.6563 81.768 31.3157C84.1768 31.9217 85.5611 32.5761 87.4315 34.2105C89.1268 35.6918 90.0022 36.7735 90.8297 38.8672C92.0401 41.9297 90.8297 47.2996 90.8297 47.2996C90.8297 47.2996 86.0657 41.3632 81.768 38.8672Z" fill="white"/>
<path d="M99.7655 1.23583C92.5917 13.5698 81.8938 31.8191 81.8938 31.8191L86.8022 35.2173C86.8022 35.2173 99.0104 16.087 106.184 5.38912C107.258 3.7882 106.188 1.74603 104.548 0.732396C102.951 -0.255202 100.71 -0.387579 99.7655 1.23583Z" fill="white"/>
<path d="M31.9695 38.4897L32.7195 40.9663C33.2073 42.5771 34.4678 43.8375 36.0785 44.3253L38.5551 45.0753L36.0785 45.8253C34.4678 46.3131 33.2073 47.5736 32.7195 49.1844L31.9695 51.6609L31.2195 49.1844C30.7317 47.5736 29.4712 46.3131 27.8604 45.8253L25.3839 45.0753L27.8604 44.3253C29.4712 43.8375 30.7317 42.5771 31.2195 40.9663L31.9695 38.4897Z" fill="white"/>
<path d="M45.8342 31.9453L46.1794 33.0852C46.6672 34.6959 47.9277 35.9564 49.5385 36.4442L50.6783 36.7894L49.5385 37.1346C47.9277 37.6224 46.6672 38.8829 46.1794 40.4937L45.8342 41.6335L45.489 40.4937C45.0012 38.8829 43.7408 37.6224 42.13 37.1346L40.9901 36.7894L42.13 36.4442C43.7408 35.9564 45.0012 34.6959 45.489 33.0852L45.8342 31.9453Z" fill="white"/>
<path d="M99.9529 47.8032L100.298 48.9431C100.786 50.5539 102.046 51.8143 103.657 52.3021L104.797 52.6473L103.657 52.9925C102.046 53.4803 100.786 54.7408 100.298 56.3516L99.9529 57.4914L99.6077 56.3516C99.1199 54.7408 97.8594 53.4803 96.2486 52.9925L95.1088 52.6473L96.2486 52.3021C97.8594 51.8143 99.1199 50.5539 99.6077 48.9431L99.9529 47.8032Z" fill="white"/>
<path d="M16.3497 120C14.8609 120 13.4611 119.706 12.1505 119.119C10.8399 118.522 9.68657 117.699 8.6905 116.65C7.70492 115.602 6.92903 114.391 6.36285 113.017C5.80715 111.633 5.5293 110.155 5.5293 108.582C5.5293 106.999 5.80715 105.52 6.36285 104.147C6.92903 102.763 7.70492 101.552 8.6905 100.514C9.68657 99.4653 10.8399 98.6474 12.1505 98.0603C13.4611 97.4626 14.8609 97.1638 16.3497 97.1638C18.1322 97.1638 19.7731 97.578 21.2724 98.4063C22.7718 99.2241 24.0142 100.32 24.9998 101.693L21.5712 103.533C20.9526 102.768 20.182 102.155 19.2593 101.693C18.3471 101.232 17.3773 101.001 16.3497 101.001C15.3851 101.001 14.4782 101.201 13.6289 101.599C12.7796 101.987 12.0352 102.532 11.3956 103.235C10.756 103.927 10.258 104.734 9.90151 105.657C9.54502 106.569 9.36678 107.544 9.36678 108.582C9.36678 109.63 9.54502 110.611 9.90151 111.523C10.2685 112.435 10.7718 113.242 11.4113 113.945C12.0509 114.637 12.7901 115.182 13.6289 115.581C14.4782 115.969 15.3851 116.163 16.3497 116.163C17.3982 116.163 18.3733 115.932 19.275 115.471C20.1872 114.999 20.9526 114.38 21.5712 113.615L24.9998 115.471C24.0142 116.834 22.7718 117.929 21.2724 118.758C19.7731 119.586 18.1322 120 16.3497 120Z" fill="white"/>
<path d="M27.9679 119.591V96H31.8053V119.591H27.9679Z" fill="white"/>
<path d="M42.2601 120C40.8132 120 39.4921 119.628 38.2968 118.883C37.112 118.139 36.1631 117.138 35.4502 115.879C34.7477 114.621 34.3964 113.232 34.3964 111.712C34.3964 110.569 34.6009 109.499 35.0098 108.503C35.4187 107.497 35.9797 106.616 36.6926 105.861C37.4161 105.096 38.2549 104.498 39.209 104.068C40.1631 103.638 41.1802 103.423 42.2601 103.423C43.4869 103.423 44.6087 103.685 45.6258 104.21C46.6533 104.723 47.5236 105.431 48.2365 106.333C48.9495 107.235 49.4685 108.262 49.7935 109.415C50.1186 110.569 50.192 111.775 50.0137 113.033H38.517C38.6638 113.62 38.9049 114.149 39.2405 114.621C39.576 115.083 40.0006 115.455 40.5144 115.738C41.0281 116.01 41.6101 116.152 42.2601 116.163C42.9312 116.173 43.5393 116.016 44.0845 115.691C44.6402 115.355 45.1015 114.904 45.4685 114.338L49.3846 115.25C48.7451 116.645 47.7909 117.788 46.5223 118.679C45.2536 119.56 43.8329 120 42.2601 120ZM38.3912 110.155H46.1291C46.0137 109.526 45.7673 108.959 45.3899 108.456C45.0229 107.942 44.5668 107.533 44.0216 107.229C43.4764 106.925 42.8892 106.773 42.2601 106.773C41.631 106.773 41.0491 106.925 40.5144 107.229C39.9797 107.523 39.5236 107.927 39.1461 108.44C38.7791 108.944 38.5275 109.515 38.3912 110.155Z" fill="white"/>
<path d="M64.4925 103.864H68.33V119.591H64.4925L64.3195 117.641C63.8896 118.343 63.3182 118.915 62.6052 119.355C61.9027 119.785 61.0692 120 60.1046 120C58.9407 120 57.8503 119.78 56.8333 119.339C55.8162 118.899 54.9198 118.291 54.1439 117.515C53.3785 116.739 52.7756 115.843 52.3352 114.826C51.9054 113.809 51.6904 112.718 51.6904 111.554C51.6904 110.433 51.8949 109.379 52.3038 108.393C52.7232 107.408 53.3051 106.543 54.0495 105.798C54.794 105.054 55.6537 104.472 56.6288 104.052C57.6039 103.633 58.6524 103.423 59.7743 103.423C60.8123 103.423 61.7402 103.654 62.558 104.115C63.3864 104.577 64.0888 105.164 64.6655 105.877L64.4925 103.864ZM60.0102 116.304C60.828 116.304 61.5515 116.1 62.1806 115.691C62.8097 115.282 63.3025 114.731 63.659 114.039C64.0154 113.337 64.1937 112.566 64.1937 111.727C64.1937 110.878 64.0154 110.107 63.659 109.415C63.3025 108.713 62.8044 108.157 62.1649 107.748C61.5358 107.339 60.8175 107.135 60.0102 107.135C59.2029 107.135 58.4637 107.345 57.7926 107.764C57.1321 108.173 56.6026 108.723 56.2042 109.415C55.8162 110.107 55.6223 110.878 55.6223 111.727C55.6223 112.577 55.8215 113.347 56.2199 114.039C56.6183 114.731 57.1478 115.282 57.8084 115.691C58.4794 116.1 59.2134 116.304 60.0102 116.304Z" fill="white"/>
<path d="M85.8702 109.651V119.591H82.0327V110.658C82.0327 110.039 81.8807 109.478 81.5766 108.975C81.2726 108.461 80.8637 108.058 80.3499 107.764C79.8466 107.46 79.2857 107.308 78.6671 107.308C78.0485 107.308 77.4823 107.46 76.9685 107.764C76.4652 108.058 76.0616 108.461 75.7575 108.975C75.4639 109.478 75.3171 110.039 75.3171 110.658V119.591H71.4797L71.4639 103.864H75.3014L75.3171 105.263C75.8519 104.697 76.4914 104.252 77.2359 103.927C77.9803 103.591 78.7824 103.423 79.6422 103.423C80.785 103.423 81.8283 103.706 82.7719 104.273C83.7156 104.828 84.4652 105.578 85.0209 106.522C85.5871 107.455 85.8702 108.498 85.8702 109.651Z" fill="white"/>
<path d="M99.195 120C97.6642 120 96.2383 119.701 94.9171 119.104C93.6065 118.506 92.4637 117.683 91.4886 116.634C90.5135 115.575 89.7481 114.359 89.1924 112.986C88.6472 111.602 88.3746 110.123 88.3746 108.55C88.3746 106.894 88.6681 105.374 89.2553 103.99C89.8529 102.606 90.6655 101.405 91.693 100.388C92.7206 99.3709 93.8844 98.5845 95.1845 98.0288C96.4951 97.4731 97.8582 97.1953 99.2736 97.1953C100.857 97.1953 102.393 97.5675 103.882 98.3119C105.381 99.0459 106.702 100.183 107.845 101.725L104.416 103.565C103.714 102.705 102.907 102.066 101.994 101.646C101.093 101.216 100.17 101.001 99.2265 101.001C98.3038 101.001 97.4178 101.19 96.5685 101.567C95.7297 101.945 94.9801 102.48 94.3195 103.172C93.6694 103.853 93.1557 104.661 92.7782 105.594C92.4008 106.516 92.212 107.528 92.212 108.629C92.212 109.667 92.3955 110.647 92.7625 111.57C93.1295 112.482 93.6327 113.284 94.2723 113.976C94.9224 114.658 95.6721 115.193 96.5213 115.581C97.3706 115.969 98.2828 116.163 99.2579 116.163C99.908 116.163 100.542 116.063 101.161 115.864C101.79 115.654 102.377 115.355 102.922 114.967C103.478 114.579 103.971 114.107 104.401 113.552C104.841 112.996 105.208 112.367 105.502 111.664H101.491V108.315H110.015C110.057 109.919 109.806 111.423 109.261 112.828C108.715 114.233 107.945 115.476 106.949 116.556C105.953 117.636 104.794 118.48 103.473 119.088C102.152 119.696 100.726 120 99.195 120Z" fill="white"/>
<path d="M119.607 120C118.16 120 116.839 119.628 115.644 118.883C114.459 118.139 113.51 117.143 112.797 115.895C112.094 114.637 111.743 113.248 111.743 111.727C111.743 110.574 111.948 109.499 112.357 108.503C112.766 107.497 113.326 106.616 114.039 105.861C114.763 105.096 115.602 104.498 116.556 104.068C117.51 103.638 118.527 103.423 119.607 103.423C121.054 103.423 122.37 103.796 123.555 104.54C124.75 105.284 125.699 106.286 126.401 107.544C127.114 108.802 127.471 110.197 127.471 111.727C127.471 112.87 127.266 113.94 126.857 114.936C126.448 115.932 125.882 116.813 125.159 117.578C124.446 118.333 123.612 118.925 122.658 119.355C121.714 119.785 120.697 120 119.607 120ZM119.607 116.163C120.372 116.163 121.059 115.958 121.667 115.549C122.275 115.14 122.752 114.6 123.098 113.929C123.455 113.258 123.633 112.524 123.633 111.727C123.633 110.91 123.45 110.165 123.083 109.494C122.726 108.813 122.239 108.273 121.62 107.874C121.012 107.465 120.341 107.261 119.607 107.261C118.852 107.261 118.171 107.465 117.562 107.874C116.954 108.283 116.472 108.828 116.115 109.51C115.759 110.191 115.581 110.931 115.581 111.727C115.581 112.556 115.764 113.305 116.131 113.976C116.498 114.647 116.986 115.182 117.594 115.581C118.212 115.969 118.883 116.163 119.607 116.163Z" fill="white"/>
</svg>
