<svg width="372" height="187" viewBox="0 0 372 187" fill="none" xmlns="http://www.w3.org/2000/svg">
<g filter="url(#filter0_d_4006_2545)">
<rect x="15.6616" y="21" width="334.768" height="144.448" rx="31.232" fill="#DBF6E3" shape-rendering="crispEdges"/>
<rect x="15.1616" y="20.5" width="335.768" height="145.448" rx="31.732" stroke="#00D43C" shape-rendering="crispEdges"/>
<path d="M36.4128 69.9397C35.7768 69.9397 35.1657 69.8401 34.5794 69.641C33.9931 69.4419 33.4816 69.1571 33.0446 68.7866C32.6077 68.4105 32.2952 67.9652 32.1072 67.4509L33.7249 66.8453C33.8189 67.1108 33.9987 67.3486 34.2642 67.5587C34.5352 67.7634 34.8559 67.9238 35.2265 68.0399C35.6026 68.1561 35.998 68.2141 36.4128 68.2141C36.8553 68.2141 37.2701 68.1422 37.6572 67.9984C38.0499 67.8546 38.3651 67.6555 38.603 67.4011C38.8463 67.1467 38.968 66.8481 38.968 66.5052C38.968 66.1512 38.8408 65.8608 38.5864 65.6341C38.3375 65.4073 38.0167 65.2276 37.624 65.0948C37.2369 64.9621 36.8331 64.8625 36.4128 64.7962C35.5998 64.6634 34.8698 64.4699 34.2227 64.2155C33.5811 63.961 33.0723 63.6043 32.6962 63.1453C32.3257 62.6862 32.1404 62.0889 32.1404 61.3533C32.1404 60.662 32.3367 60.0592 32.7294 59.5448C33.1276 59.0305 33.6502 58.6322 34.2973 58.3502C34.95 58.0626 35.6551 57.9188 36.4128 57.9188C37.0378 57.9188 37.6406 58.0183 38.2213 58.2174C38.8076 58.411 39.3219 58.6958 39.7644 59.0719C40.2124 59.4425 40.5332 59.8932 40.7267 60.4242L39.0924 61.0132C38.9984 60.7422 38.8187 60.5071 38.5532 60.308C38.2877 60.1034 37.9669 59.943 37.5908 59.8269C37.2203 59.7107 36.8276 59.6527 36.4128 59.6527C35.9704 59.6471 35.5556 59.719 35.1684 59.8683C34.7868 60.0121 34.4743 60.2113 34.231 60.4657C33.9876 60.7201 33.8659 61.016 33.8659 61.3533C33.8659 61.7681 33.9793 62.0834 34.2061 62.2991C34.4328 62.5148 34.737 62.6752 35.1186 62.7802C35.5058 62.8798 35.9372 62.9711 36.4128 63.054C37.176 63.1757 37.8812 63.3776 38.5283 63.6596C39.1809 63.9417 39.7036 64.3178 40.0962 64.7879C40.4944 65.2525 40.6936 65.8249 40.6936 66.5052C40.6936 67.191 40.4944 67.7938 40.0962 68.3137C39.7036 68.828 39.1809 69.229 38.5283 69.5166C37.8812 69.7987 37.176 69.9397 36.4128 69.9397ZM45.9855 69.9397C45.2223 69.9397 44.5254 69.7434 43.8949 69.3507C43.2699 68.958 42.7694 68.4326 42.3933 67.7744C42.0228 67.1108 41.8375 66.3779 41.8375 65.576C41.8375 64.9676 41.9453 64.4007 42.161 63.8753C42.3767 63.3444 42.6726 62.8798 43.0487 62.4816C43.4303 62.0779 43.8728 61.7626 44.3761 61.5358C44.8794 61.3091 45.4158 61.1957 45.9855 61.1957C46.6215 61.1957 47.205 61.3284 47.7359 61.5939C48.2669 61.8539 48.7204 62.2161 49.0965 62.6807C49.4726 63.1397 49.7491 63.6707 49.9261 64.2735C50.1031 64.8708 50.1556 65.5069 50.0837 66.1816H43.6875C43.7594 66.5632 43.8977 66.9089 44.1023 67.2186C44.3125 67.5228 44.5779 67.7634 44.8987 67.9404C45.225 68.1173 45.5873 68.2086 45.9855 68.2141C46.4058 68.2141 46.7874 68.109 47.1303 67.8989C47.4788 67.6887 47.7636 67.3984 47.9848 67.0278L49.7353 67.4343C49.4034 68.1699 48.9029 68.7727 48.2337 69.2428C47.5645 69.7074 46.8151 69.9397 45.9855 69.9397ZM43.6294 64.8625H48.3416C48.2863 64.4643 48.1452 64.1048 47.9185 63.7841C47.6972 63.4578 47.4179 63.2006 47.0806 63.0125C46.7487 62.819 46.3837 62.7222 45.9855 62.7222C45.5928 62.7222 45.2278 62.8162 44.8904 63.0042C44.5586 63.1923 44.282 63.4495 44.0608 63.7758C43.8451 64.0965 43.7013 64.4588 43.6294 64.8625ZM56.8587 67.3679L58.4018 68.2058C58.0257 68.7312 57.5473 69.1516 56.9665 69.4668C56.3914 69.7821 55.7664 69.9397 55.0916 69.9397C54.3284 69.9397 53.6316 69.7434 53.0011 69.3507C52.3761 68.958 51.8756 68.4326 51.4995 67.7744C51.1289 67.1108 50.9436 66.3779 50.9436 65.576C50.9436 64.9676 51.0515 64.4007 51.2672 63.8753C51.4829 63.3444 51.7788 62.8798 52.1549 62.4816C52.5365 62.0779 52.9789 61.7626 53.4822 61.5358C53.9855 61.3091 54.522 61.1957 55.0916 61.1957C55.7664 61.1957 56.3914 61.3533 56.9665 61.6686C57.5473 61.9838 58.0257 62.4069 58.4018 62.9379L56.8587 63.7758C56.6264 63.4992 56.3554 63.2891 56.0457 63.1453C55.736 62.9959 55.418 62.9213 55.0916 62.9213C54.6381 62.9213 54.2261 63.0457 53.8555 63.2946C53.4905 63.5379 53.2002 63.8615 52.9845 64.2652C52.7743 64.6634 52.6692 65.1004 52.6692 65.576C52.6692 66.0461 52.7771 66.483 52.9928 66.8868C53.2085 67.285 53.4988 67.6058 53.8638 67.8491C54.2344 68.0925 54.6437 68.2141 55.0916 68.2141C55.4346 68.2141 55.7609 68.1367 56.0706 67.9818C56.3803 67.827 56.643 67.6223 56.8587 67.3679ZM59.4218 66.613V61.428H61.1473V66.1899C61.1473 66.5605 61.2386 66.8978 61.4211 67.202C61.6036 67.5062 61.847 67.7496 62.1512 67.9321C62.4553 68.109 62.7899 68.1975 63.155 68.1975C63.5255 68.1975 63.8601 68.109 64.1588 67.9321C64.463 67.7496 64.7036 67.5062 64.8805 67.202C65.0631 66.8978 65.1543 66.5605 65.1543 66.1899V61.428H66.8799L66.8882 69.724H65.1626L65.1543 68.828C64.8722 69.1709 64.521 69.4419 64.1007 69.641C63.6804 69.8401 63.2296 69.9397 62.7485 69.9397C62.1346 69.9397 61.576 69.7904 61.0727 69.4917C60.5694 69.1931 60.1684 68.7921 59.8698 68.2888C59.5711 67.7855 59.4218 67.2269 59.4218 66.613ZM68.5519 69.724V61.428H70.2775V62.3074C70.5651 61.9645 70.919 61.6935 71.3394 61.4944C71.7597 61.2953 72.2132 61.1957 72.6999 61.1957C73.0096 61.1957 73.3166 61.2372 73.6208 61.3202L72.9322 63.0623C72.7165 62.9794 72.5008 62.9379 72.2851 62.9379C71.9201 62.9379 71.5855 63.0291 71.2813 63.2116C70.9771 63.3886 70.7338 63.6292 70.5512 63.9334C70.3687 64.2376 70.2775 64.5749 70.2775 64.9455V69.724H68.5519ZM74.5795 61.428H76.305V69.724H74.5795V61.428ZM75.4589 60.2251C75.1934 60.2251 74.9722 60.1394 74.7952 59.9679C74.6182 59.7965 74.5297 59.5808 74.5297 59.3208C74.5297 59.0664 74.6182 58.8535 74.7952 58.682C74.9722 58.505 75.1906 58.4166 75.4506 58.4166C75.705 58.4166 75.9207 58.505 76.0976 58.682C76.2746 58.8535 76.3631 59.0664 76.3631 59.3208C76.3631 59.5808 76.2746 59.7965 76.0976 59.9679C75.9262 60.1394 75.7133 60.2251 75.4589 60.2251ZM82.6703 63.1536H80.9281L80.9198 69.724H79.1943L79.2025 63.1536H77.8835V61.428H79.2025L79.1943 58.8231H80.9198L80.9281 61.428H82.6703V63.1536ZM89.579 61.428H91.4207L86.8745 73.872H85.0411L86.5427 69.724L83.5644 61.428H85.4476L87.4055 67.3596L89.579 61.428ZM97.0694 69.724V58.1096H98.795V67.9984H103.797V69.724H97.0694ZM108.53 69.9397C107.766 69.9397 107.069 69.7434 106.439 69.3507C105.814 68.958 105.313 68.4326 104.937 67.7744C104.567 67.1108 104.382 66.3779 104.382 65.576C104.382 64.9676 104.489 64.4007 104.705 63.8753C104.921 63.3444 105.217 62.8798 105.593 62.4816C105.974 62.0779 106.417 61.7626 106.92 61.5358C107.423 61.3091 107.96 61.1957 108.53 61.1957C109.166 61.1957 109.749 61.3284 110.28 61.5939C110.811 61.8539 111.264 62.2161 111.641 62.6807C112.017 63.1397 112.293 63.6707 112.47 64.2735C112.647 64.8708 112.7 65.5069 112.628 66.1816H106.232C106.303 66.5632 106.442 66.9089 106.646 67.2186C106.857 67.5228 107.122 67.7634 107.443 67.9404C107.769 68.1173 108.131 68.2086 108.53 68.2141C108.95 68.2141 109.332 68.109 109.674 67.8989C110.023 67.6887 110.308 67.3984 110.529 67.0278L112.279 67.4343C111.948 68.1699 111.447 68.7727 110.778 69.2428C110.109 69.7074 109.359 69.9397 108.53 69.9397ZM106.173 64.8625H110.886C110.83 64.4643 110.689 64.1048 110.463 63.7841C110.241 63.4578 109.962 63.2006 109.625 63.0125C109.293 62.819 108.928 62.7222 108.53 62.7222C108.137 62.7222 107.772 62.8162 107.434 63.0042C107.103 63.1923 106.826 63.4495 106.605 63.7758C106.389 64.0965 106.245 64.4588 106.173 64.8625ZM118.358 69.724H116.143L113.115 61.4114H114.957L117.246 67.733L119.544 61.4114H121.378L118.358 69.724ZM125.98 69.9397C125.217 69.9397 124.52 69.7434 123.89 69.3507C123.265 68.958 122.764 68.4326 122.388 67.7744C122.018 67.1108 121.832 66.3779 121.832 65.576C121.832 64.9676 121.94 64.4007 122.156 63.8753C122.372 63.3444 122.667 62.8798 123.044 62.4816C123.425 62.0779 123.868 61.7626 124.371 61.5358C124.874 61.3091 125.411 61.1957 125.98 61.1957C126.616 61.1957 127.2 61.3284 127.731 61.5939C128.262 61.8539 128.715 62.2161 129.091 62.6807C129.467 63.1397 129.744 63.6707 129.921 64.2735C130.098 64.8708 130.15 65.5069 130.079 66.1816H123.682C123.754 66.5632 123.892 66.9089 124.097 67.2186C124.307 67.5228 124.573 67.7634 124.894 67.9404C125.22 68.1173 125.582 68.2086 125.98 68.2141C126.401 68.2141 126.782 68.109 127.125 67.8989C127.474 67.6887 127.758 67.3984 127.98 67.0278L129.73 67.4343C129.398 68.1699 128.898 68.7727 128.229 69.2428C127.559 69.7074 126.81 69.9397 125.98 69.9397ZM123.624 64.8625H128.336C128.281 64.4643 128.14 64.1048 127.913 63.7841C127.692 63.4578 127.413 63.2006 127.075 63.0125C126.744 62.819 126.379 62.7222 125.98 62.7222C125.588 62.7222 125.223 62.8162 124.885 63.0042C124.553 63.1923 124.277 63.4495 124.056 63.7758C123.84 64.0965 123.696 64.4588 123.624 64.8625ZM131.339 69.724V57.28H133.065V69.724H131.339ZM135.622 63.2448C135.368 63.2448 135.152 63.1563 134.975 62.9794C134.803 62.8024 134.718 62.5867 134.718 62.3323C134.718 62.0834 134.803 61.8705 134.975 61.6935C135.152 61.5165 135.368 61.428 135.622 61.428C135.876 61.428 136.092 61.5165 136.269 61.6935C136.446 61.8705 136.535 62.0834 136.535 62.3323C136.535 62.5867 136.446 62.8024 136.269 62.9794C136.092 63.1563 135.876 63.2448 135.622 63.2448ZM135.622 69.9397C135.368 69.9397 135.152 69.8512 134.975 69.6742C134.803 69.4972 134.718 69.2815 134.718 69.0271C134.718 68.7783 134.803 68.5653 134.975 68.3883C135.152 68.2114 135.368 68.1229 135.622 68.1229C135.876 68.1229 136.092 68.2114 136.269 68.3883C136.446 68.5653 136.535 68.7783 136.535 69.0271C136.535 69.2815 136.446 69.4972 136.269 69.6742C136.092 69.8512 135.876 69.9397 135.622 69.9397Z" fill="#333333"/>
<path d="M36.1561 87.8889C35.5471 87.8889 34.9761 87.7705 34.4432 87.5337C33.9146 87.2926 33.4515 86.9606 33.0539 86.5377C32.6564 86.1105 32.3455 85.6199 32.1213 85.0659C31.8972 84.5076 31.7851 83.9113 31.7851 83.2769C31.7851 82.6298 31.9014 82.0271 32.134 81.4688C32.3666 80.9105 32.686 80.4242 33.092 80.0097C33.498 79.591 33.9632 79.2653 34.4877 79.0327C35.0163 78.8001 35.5767 78.6838 36.1688 78.6838C36.8497 78.6838 37.4926 78.8424 38.0974 79.1596C38.7064 79.4768 39.2224 79.9272 39.6453 80.5109L38.8523 80.9423C38.514 80.4982 38.1059 80.1577 37.6279 79.9209C37.1543 79.684 36.6658 79.5656 36.1625 79.5656C35.6846 79.5656 35.2341 79.6629 34.8112 79.8574C34.3925 80.0478 34.0224 80.3142 33.701 80.6568C33.3796 80.9994 33.1279 81.3948 32.9461 81.8431C32.7642 82.2914 32.6733 82.7736 32.6733 83.2895C32.6733 83.8013 32.7642 84.2813 32.9461 84.7296C33.1279 85.1779 33.3775 85.5734 33.6947 85.916C34.0161 86.2543 34.3883 86.5208 34.8112 86.7153C35.2341 86.9056 35.6867 87.0008 36.1688 87.0008C36.5664 87.0008 36.9428 86.9331 37.298 86.7978C37.6575 86.6582 37.9853 86.4637 38.2814 86.2141C38.5774 85.9646 38.827 85.6728 39.03 85.3387C39.2372 85.0045 39.3873 84.6408 39.4804 84.2475H37.0824V83.4418H40.5145C40.5018 84.0551 40.3791 84.6302 40.1465 85.1674C39.9139 85.7045 39.5967 86.1782 39.1949 86.5884C38.7973 86.9944 38.3385 87.3138 37.8183 87.5464C37.3023 87.7748 36.7482 87.8889 36.1561 87.8889ZM41.7531 87.724V81.38H42.6413V82.2555C42.8654 81.934 43.1573 81.6782 43.5168 81.4878C43.8762 81.2975 44.2675 81.2024 44.6904 81.2024C44.9357 81.2024 45.1725 81.2341 45.4009 81.2975L45.0393 82.1793C44.8617 82.1244 44.6883 82.0969 44.5191 82.0969C44.1765 82.0969 43.8614 82.1815 43.5738 82.3506C43.2905 82.5198 43.0642 82.7461 42.895 83.0294C42.7259 83.3128 42.6413 83.6279 42.6413 83.9747V87.724H41.7531ZM48.6582 87.8889C48.0745 87.8889 47.5416 87.7388 47.0595 87.4385C46.5816 87.1382 46.1988 86.7364 45.9112 86.2332C45.6279 85.7256 45.4862 85.1653 45.4862 84.552C45.4862 84.0868 45.5686 83.6533 45.7336 83.2515C45.8985 82.8455 46.1248 82.4902 46.4124 82.1857C46.7042 81.8769 47.0426 81.6359 47.4274 81.4625C47.8123 81.2891 48.2225 81.2024 48.6582 81.2024C49.1276 81.2024 49.559 81.2954 49.9523 81.4815C50.3499 81.6676 50.6904 81.9277 50.9737 82.2618C51.2613 82.5959 51.477 82.9871 51.6208 83.4355C51.7688 83.8838 51.8302 84.368 51.8048 84.8882H46.4251C46.4758 85.29 46.6027 85.6495 46.8057 85.9667C47.013 86.2839 47.2752 86.5356 47.5924 86.7216C47.9138 86.9035 48.2691 86.9966 48.6582 87.0008C49.0811 87.0008 49.4617 86.8908 49.8001 86.6709C50.1427 86.451 50.4176 86.1486 50.6248 85.7637L51.5257 85.9731C51.2719 86.5356 50.8891 86.9966 50.3774 87.356C49.8656 87.7113 49.2926 87.8889 48.6582 87.8889ZM46.3997 84.1714H50.9103C50.8807 83.778 50.7601 83.4185 50.5487 83.0929C50.3414 82.763 50.0729 82.5008 49.743 82.3062C49.4131 82.1074 49.0515 82.0081 48.6582 82.0081C48.2648 82.0081 47.9053 82.1053 47.5797 82.2999C47.254 82.4902 46.9876 82.7503 46.7803 83.0802C46.5731 83.4058 46.4462 83.7696 46.3997 84.1714ZM58.0451 81.38H58.9333V87.724H58.0451L58.0134 86.544C57.8062 86.9458 57.5164 87.2715 57.1443 87.521C56.7721 87.7663 56.328 87.8889 55.812 87.8889C55.3468 87.8889 54.9112 87.8022 54.5052 87.6288C54.0991 87.4512 53.7418 87.208 53.433 86.8993C53.1243 86.5905 52.8832 86.2332 52.7098 85.8271C52.5364 85.4211 52.4497 84.9855 52.4497 84.5203C52.4497 84.0635 52.5343 83.6342 52.7035 83.2324C52.8769 82.8307 53.1137 82.4775 53.414 82.173C53.7185 81.8685 54.0695 81.6316 54.4671 81.4625C54.8689 81.2891 55.2982 81.2024 55.7549 81.2024C56.2836 81.2024 56.7446 81.3292 57.1379 81.583C57.5312 81.8325 57.8442 82.1603 58.0768 82.5663L58.0451 81.38ZM55.793 87.0262C56.2455 87.0262 56.6346 86.9162 56.9603 86.6963C57.2859 86.4721 57.5355 86.1718 57.7089 85.7954C57.8865 85.419 57.9753 85.0045 57.9753 84.552C57.9753 84.0868 57.8865 83.6681 57.7089 83.2959C57.5312 82.9195 57.2796 82.6213 56.9539 82.4014C56.6283 82.1815 56.2413 82.0715 55.793 82.0715C55.3447 82.0715 54.9344 82.1836 54.5623 82.4077C54.1943 82.6277 53.9004 82.9258 53.6804 83.3022C53.4647 83.6786 53.3569 84.0952 53.3569 84.552C53.3569 85.013 53.469 85.4317 53.6931 85.8081C53.9173 86.1803 54.2133 86.4763 54.5813 86.6963C54.9535 86.9162 55.3574 87.0262 55.793 87.0262ZM63.4445 82.2682H61.9283L61.922 87.724H61.0338L61.0402 82.2682H59.8919V81.38H61.0402L61.0338 79.388H61.922L61.9283 81.38H63.4445V82.2682ZM64.4434 85.0595V78.8424H65.2237V85.0595H64.4434ZM64.8368 87.8889C64.693 87.8889 64.5703 87.8382 64.4688 87.7367C64.3715 87.6394 64.3229 87.5189 64.3229 87.3751C64.3229 87.2355 64.3715 87.1171 64.4688 87.0198C64.5703 86.9225 64.693 86.8739 64.8368 86.8739C64.9721 86.8739 65.0884 86.9225 65.1857 87.0198C65.283 87.1171 65.3316 87.2355 65.3316 87.3751C65.3316 87.5189 65.283 87.6394 65.1857 87.7367C65.0884 87.8382 64.9721 87.8889 64.8368 87.8889Z" fill="#333333"/>
<path d="M35.5251 124.724V105.544H32.605L33.7 101.495H39.5736V124.724H35.5251ZM52.2691 125.155C50.9196 125.155 49.6918 124.846 48.5856 124.226C47.4795 123.596 46.5227 122.727 45.7152 121.621C44.9188 120.515 44.3049 119.238 43.8735 117.789C43.4421 116.328 43.2264 114.769 43.2264 113.11C43.2264 111.45 43.4421 109.896 43.8735 108.447C44.3049 106.987 44.9188 105.704 45.7152 104.598C46.5227 103.492 47.4795 102.629 48.5856 102.01C49.6918 101.379 50.9196 101.064 52.2691 101.064C53.6185 101.064 54.8464 101.379 55.9525 102.01C57.0586 102.629 58.0044 103.492 58.7897 104.598C59.5861 105.704 60.2 106.987 60.6314 108.447C61.0739 109.896 61.2951 111.45 61.2951 113.11C61.2951 114.769 61.0739 116.328 60.6314 117.789C60.2 119.238 59.5861 120.515 58.7897 121.621C58.0044 122.727 57.0586 123.596 55.9525 124.226C54.8464 124.846 53.6185 125.155 52.2691 125.155ZM52.2691 121.107C53.4526 121.107 54.4316 120.731 55.2059 119.979C55.9801 119.227 56.5553 118.242 56.9314 117.025C57.3075 115.809 57.4955 114.503 57.4955 113.11C57.4955 111.638 57.2964 110.3 56.8982 109.094C56.5 107.878 55.9138 106.91 55.1395 106.191C54.3652 105.472 53.4084 105.112 52.2691 105.112C51.3731 105.112 50.5933 105.333 49.9296 105.776C49.277 106.207 48.735 106.799 48.3036 107.551C47.8722 108.303 47.5514 109.161 47.3412 110.123C47.1311 111.074 47.026 112.07 47.026 113.11C47.026 114.492 47.214 115.798 47.5901 117.025C47.9773 118.242 48.558 119.227 49.3323 119.979C50.1176 120.731 51.0966 121.107 52.2691 121.107ZM71.5832 125.155C70.2337 125.155 69.0059 124.846 67.8998 124.226C66.7936 123.596 65.8368 122.727 65.0294 121.621C64.2329 120.515 63.619 119.238 63.1876 117.789C62.7562 116.328 62.5406 114.769 62.5406 113.11C62.5406 111.45 62.7562 109.896 63.1876 108.447C63.619 106.987 64.2329 105.704 65.0294 104.598C65.8368 103.492 66.7936 102.629 67.8998 102.01C69.0059 101.379 70.2337 101.064 71.5832 101.064C72.9327 101.064 74.1605 101.379 75.2666 102.01C76.3728 102.629 77.3185 103.492 78.1038 104.598C78.9003 105.704 79.5142 106.987 79.9456 108.447C80.388 109.896 80.6092 111.45 80.6092 113.11C80.6092 114.769 80.388 116.328 79.9456 117.789C79.5142 119.238 78.9003 120.515 78.1038 121.621C77.3185 122.727 76.3728 123.596 75.2666 124.226C74.1605 124.846 72.9327 125.155 71.5832 125.155ZM71.5832 121.107C72.7668 121.107 73.7457 120.731 74.52 119.979C75.2943 119.227 75.8695 118.242 76.2455 117.025C76.6216 115.809 76.8097 114.503 76.8097 113.11C76.8097 111.638 76.6106 110.3 76.2124 109.094C75.8142 107.878 75.2279 106.91 74.4536 106.191C73.6793 105.472 72.7225 105.112 71.5832 105.112C70.6872 105.112 69.9074 105.333 69.2437 105.776C68.5911 106.207 68.0491 106.799 67.6177 107.551C67.1863 108.303 66.8655 109.161 66.6554 110.123C66.4452 111.074 66.3401 112.07 66.3401 113.11C66.3401 114.492 66.5282 115.798 66.9042 117.025C67.2914 118.242 67.8721 119.227 68.6464 119.979C69.4318 120.731 70.4107 121.107 71.5832 121.107ZM85.0722 124.724L98.4786 101.495H103.158L89.7512 124.724H85.0722ZM87.9261 111.567C87.019 111.567 86.1839 111.351 85.4207 110.919C84.6685 110.477 84.0656 109.88 83.6121 109.128C83.1586 108.375 82.9319 107.535 82.9319 106.606C82.9319 105.654 83.1586 104.803 83.6121 104.05C84.0767 103.298 84.6851 102.706 85.4373 102.275C86.2005 101.844 87.0301 101.628 87.9261 101.628C88.8331 101.628 89.6627 101.849 90.4149 102.292C91.167 102.734 91.7643 103.331 92.2068 104.084C92.6603 104.836 92.8871 105.676 92.8871 106.606C92.8871 107.546 92.6548 108.392 92.1902 109.144C91.7367 109.896 91.1338 110.488 90.3817 110.919C89.6295 111.351 88.811 111.567 87.9261 111.567ZM87.9261 108.796C88.5234 108.796 89.0377 108.586 89.4691 108.165C89.9005 107.734 90.1162 107.214 90.1162 106.606C90.1162 105.986 89.9005 105.466 89.4691 105.046C89.0377 104.626 88.5234 104.415 87.9261 104.415C87.3177 104.415 86.7923 104.626 86.3498 105.046C85.9184 105.466 85.7027 105.986 85.7027 106.606C85.7027 107.214 85.9184 107.734 86.3498 108.165C86.7923 108.586 87.3177 108.796 87.9261 108.796ZM100.304 124.608C99.3856 124.608 98.5505 124.381 97.7983 123.928C97.0461 123.463 96.4488 122.855 96.0064 122.102C95.5639 121.339 95.3427 120.521 95.3427 119.647C95.3427 118.696 95.5694 117.844 96.0229 117.092C96.4875 116.34 97.0959 115.748 97.8481 115.316C98.6113 114.874 99.4298 114.653 100.304 114.653C101.255 114.653 102.107 114.885 102.859 115.35C103.611 115.814 104.203 116.428 104.634 117.191C105.077 117.943 105.298 118.762 105.298 119.647C105.298 120.554 105.071 121.383 104.618 122.136C104.175 122.888 103.572 123.491 102.809 123.944C102.057 124.387 101.222 124.608 100.304 124.608ZM100.304 121.837C100.923 121.837 101.449 121.621 101.88 121.19C102.311 120.759 102.527 120.244 102.527 119.647C102.527 119.027 102.311 118.502 101.88 118.071C101.449 117.639 100.923 117.424 100.304 117.424C99.7064 117.424 99.192 117.639 98.7606 118.071C98.3292 118.502 98.1135 119.027 98.1135 119.647C98.1135 120.244 98.3292 120.759 98.7606 121.19C99.192 121.621 99.7064 121.837 100.304 121.837Z" fill="#00D43C"/>
<path d="M245.036 95.1779C246.025 116.281 262.957 133.212 284.06 134.202V142.024C258.64 141.024 238.213 120.598 237.213 95.1779H245.036Z" fill="#00D43C"/>
<path d="M334.814 95.1779C333.814 120.598 313.386 141.024 287.967 142.024V134.202C309.07 133.212 326.001 116.281 326.99 95.1779H334.814Z" fill="#00D43C"/>
<path d="M287.967 44.424C313.386 45.4239 333.814 65.8514 334.814 91.271H326.99C326.001 70.1681 309.07 53.2356 287.967 52.2463V44.424Z" fill="#00D43C"/>
<path d="M284.06 52.2463C262.957 53.2358 246.025 70.1682 245.036 91.271H237.213C238.213 65.8516 258.64 45.4241 284.06 44.424V52.2463Z" fill="#00D43C"/>
<circle cx="286.014" cy="93.224" r="23.424" fill="#00D43C"/>
<rect x="274.303" y="96.152" width="3.904" height="12.688" rx="1.952" transform="rotate(-45 274.303 96.152)" fill="#FDFDFD"/>
<rect x="297.077" y="85.7999" width="3.904" height="23.424" rx="1.952" transform="rotate(45 297.077 85.7999)" fill="#FDFDFD"/>
</g>
<defs>
<filter id="filter0_d_4006_2545" x="-5.33841" y="0" width="376.768" height="186.448" filterUnits="userSpaceOnUse" color-interpolation-filters="sRGB">
<feFlood flood-opacity="0" result="BackgroundImageFix"/>
<feColorMatrix in="SourceAlpha" type="matrix" values="0 0 0 0 0 0 0 0 0 0 0 0 0 0 0 0 0 0 127 0" result="hardAlpha"/>
<feOffset/>
<feGaussianBlur stdDeviation="10"/>
<feComposite in2="hardAlpha" operator="out"/>
<feColorMatrix type="matrix" values="0 0 0 0 1 0 0 0 0 1 0 0 0 0 1 0 0 0 0.65 0"/>
<feBlend mode="normal" in2="BackgroundImageFix" result="effect1_dropShadow_4006_2545"/>
<feBlend mode="normal" in="SourceGraphic" in2="effect1_dropShadow_4006_2545" result="shape"/>
</filter>
</defs>
</svg>
