<svg width="40" height="40" viewBox="0 0 40 40" fill="none" xmlns="http://www.w3.org/2000/svg">
<path d="M13.9841 18C12.8792 18 11.9336 17.6175 11.1474 16.8526C10.3825 16.0664 10 15.1102 10 13.9841C10 12.9004 10.3825 11.9655 11.1474 11.1793C11.9336 10.3931 12.8792 10 13.9841 10C15.089 10 16.0345 10.3931 16.8207 11.1793C17.6069 11.9655 18 12.9004 18 13.9841C18 15.1102 17.6069 16.0664 16.8207 16.8526C16.0345 17.6175 15.089 18 13.9841 18Z" fill="white"/>
<path d="M13.9841 30C12.8792 30 11.9336 29.6175 11.1474 28.8526C10.3825 28.0664 10 27.1102 10 25.9841C10 24.9004 10.3825 23.9655 11.1474 23.1793C11.9336 22.3931 12.8792 22 13.9841 22C15.089 22 16.0345 22.3931 16.8207 23.1793C17.6069 23.9655 18 24.9004 18 25.9841C18 27.1102 17.6069 28.0664 16.8207 28.8526C16.0345 29.6175 15.089 30 13.9841 30Z" fill="white"/>
<path d="M25.9841 18C24.8792 18 23.9336 17.6175 23.1474 16.8526C22.3825 16.0664 22 15.1102 22 13.9841C22 12.9004 22.3825 11.9655 23.1474 11.1793C23.9336 10.3931 24.8792 10 25.9841 10C27.089 10 28.0345 10.3931 28.8207 11.1793C29.6069 11.9655 30 12.9004 30 13.9841C30 15.1102 29.6069 16.0664 28.8207 16.8526C28.0345 17.6175 27.089 18 25.9841 18Z" fill="white"/>
<path d="M25.9841 30C24.8792 30 23.9336 29.6175 23.1474 28.8526C22.3825 28.0664 22 27.1102 22 25.9841C22 24.9004 22.3825 23.9655 23.1474 23.1793C23.9336 22.3931 24.8792 22 25.9841 22C27.089 22 28.0345 22.3931 28.8207 23.1793C29.6069 23.9655 30 24.9004 30 25.9841C30 27.1102 29.6069 28.0664 28.8207 28.8526C28.0345 29.6175 27.089 30 25.9841 30Z" fill="white"/>
</svg>
