<svg width="24" height="24" viewBox="0 0 24 24" fill="none" xmlns="http://www.w3.org/2000/svg">
<path d="M20 11.992C20 11.4396 20.1912 10.9668 20.5737 10.5737C20.9668 10.1912 21.4449 10 22.008 10C22.5498 10 23.0173 10.1912 23.4104 10.5737C23.8035 10.9668 24 11.4396 24 11.992C24 12.5445 23.8035 13.0173 23.4104 13.4104C23.0173 13.8035 22.5498 14 22.008 14C21.4449 14 20.9668 13.8035 20.5737 13.4104C20.1912 13.0173 20 12.5445 20 11.992Z" fill="#055EEB"/>
<path d="M-8.70745e-08 11.992C-6.29258e-08 11.4396 0.191235 10.9668 0.573705 10.5737C0.966799 10.1912 1.44489 10 2.00797 10C2.5498 10 3.01726 10.1912 3.41036 10.5737C3.80345 10.9668 4 11.4396 4 11.992C4 12.5445 3.80345 13.0173 3.41036 13.4104C3.01726 13.8035 2.5498 14 2.00797 14C1.44489 14 0.966799 13.8035 0.573705 13.4104C0.191235 13.0173 -1.11223e-07 12.5445 -8.70745e-08 11.992Z" fill="#055EEB"/>
<path d="M11.992 14C11.4396 14 10.9668 13.8088 10.5737 13.4263C10.1912 13.0332 10 12.5551 10 11.992C10 11.4502 10.1912 10.9827 10.5737 10.5896C10.9668 10.1965 11.4396 10 11.992 10C12.5445 10 13.0173 10.1965 13.4104 10.5896C13.8035 10.9827 14 11.4502 14 11.992C14 12.5551 13.8035 13.0332 13.4104 13.4263C13.0173 13.8088 12.5445 14 11.992 14Z" fill="#055EEB"/>
<path d="M16.992 14C16.4396 14 15.9668 13.8088 15.5737 13.4263C15.1912 13.0332 15 12.5551 15 11.992C15 11.4502 15.1912 10.9827 15.5737 10.5896C15.9668 10.1965 16.4396 10 16.992 10C17.5445 10 18.0173 10.1965 18.4104 10.5896C18.8035 10.9827 19 11.4502 19 11.992C19 12.5551 18.8035 13.0332 18.4104 13.4263C18.0173 13.8088 17.5445 14 16.992 14Z" fill="#055EEB"/>
<path d="M6.99203 14C6.43958 14 5.9668 13.8088 5.57371 13.4263C5.19124 13.0332 5 12.5551 5 11.992C5 11.4502 5.19124 10.9827 5.57371 10.5896C5.9668 10.1965 6.43958 10 6.99203 10C7.54449 10 8.01726 10.1965 8.41036 10.5896C8.80345 10.9827 9 11.4502 9 11.992C9 12.5551 8.80345 13.0332 8.41036 13.4263C8.01726 13.8088 7.54449 14 6.99203 14Z" fill="#055EEB"/>
</svg>
